<?xml version="1.0" encoding="UTF-8" standalone="no"?>
<!-- Created with Inkscape (http://www.inkscape.org/) -->

<svg
   xmlns:dc="http://purl.org/dc/elements/1.1/"
   xmlns:cc="http://creativecommons.org/ns#"
   xmlns:rdf="http://www.w3.org/1999/02/22-rdf-syntax-ns#"
   xmlns:svg="http://www.w3.org/2000/svg"
   xmlns="http://www.w3.org/2000/svg"
   version="1.1"
   width="101.55641"
   height="101.54229"
   id="svg2">
  <defs
     id="defs4" />
  <metadata
     id="metadata7">
    <rdf:RDF>
      <cc:Work
         rdf:about="">
        <dc:format>image/svg+xml</dc:format>
        <dc:type
           rdf:resource="http://purl.org/dc/dcmitype/StillImage" />
        <dc:title></dc:title>
      </cc:Work>
    </rdf:RDF>
  </metadata>
  <path
     d="M 100.5528,71.323081 71.444076,100.49996 30.229932,100.54816 1.0530478,71.439448 1.0048468,30.2253 30.113565,1.0484167 71.327708,1.0002161 100.50459,30.108932 z"
     id="path2991"
     style="fill:#ffffff;fill-opacity:1;fill-rule:evenodd;stroke:#000000;stroke-width:2;stroke-linecap:butt;stroke-linejoin:miter;stroke-miterlimit:4;stroke-opacity:1;stroke-dasharray:none" />
  <path
     d="m 35.606845,41.870973 c -2.222963,2.924125 -3.470184,6.542339 -3.470184,10.410561 0,4.805243 2.054041,9.159873 5.326327,12.34741 -6.480035,3.822951 -11.133702,10.396099 -12.508815,18.077252 l 51.6493,0 C 75.22836,75.025043 70.57471,68.451895 64.094658,64.628944 c 3.272303,-3.187537 5.245632,-7.542167 5.245632,-12.34741 0,-3.702944 -1.270445,-7.154176 -3.308776,-10.007051 l -30.424669,-0.40351 z"
     id="path4008"
     style="color:#000000;fill:none;stroke:#0d00b4;stroke-width:3;stroke-linecap:round;stroke-linejoin:round;stroke-miterlimit:4;stroke-opacity:1;stroke-dasharray:none;stroke-dashoffset:0;marker:none;visibility:visible;display:inline;overflow:visible;enable-background:accumulate" />
  <path
     d="M 66.398633,42.100529 34.564571,41.848738 27.358743,24.422371 44.100158,28.228277 51.203696,18.84218 57.519996,29.099446 75.775157,25.7315 66.398633,42.100503 z"
     id="path4016"
     style="fill:none;stroke:#0d00b4;stroke-width:3;stroke-linecap:butt;stroke-linejoin:round;stroke-miterlimit:4;stroke-opacity:1;stroke-dasharray:none" />
  <path
     d="m 59.884983,49.470935 -5.084075,5.112039 0,0"
     id="path4018"
     style="fill:#fedaa4;fill-opacity:1;stroke:#0d00b4;stroke-width:3;stroke-linecap:round;stroke-linejoin:miter;stroke-miterlimit:4;stroke-opacity:1;stroke-dasharray:none" />
  <path
     d="m 41.617869,49.255274 5.084075,5.112039 0,0"
     id="path4018-5"
     style="fill:#fedaa4;fill-opacity:1;stroke:#0d00b4;stroke-width:3;stroke-linecap:round;stroke-linejoin:miter;stroke-miterlimit:4;stroke-opacity:1;stroke-dasharray:none" />
</svg>
