<?xml version="1.0" encoding="UTF-8" standalone="no"?>
<!-- Created with Inkscape (http://www.inkscape.org/) -->

<svg
   xmlns:dc="http://purl.org/dc/elements/1.1/"
   xmlns:cc="http://creativecommons.org/ns#"
   xmlns:rdf="http://www.w3.org/1999/02/22-rdf-syntax-ns#"
   xmlns:svg="http://www.w3.org/2000/svg"
   xmlns="http://www.w3.org/2000/svg"
   version="1.1"
   width="101.55641"
   height="101.54229"
   id="svg2">
  <defs
     id="defs4" />
  <metadata
     id="metadata7">
    <rdf:RDF>
      <cc:Work
         rdf:about="">
        <dc:format>image/svg+xml</dc:format>
        <dc:type
           rdf:resource="http://purl.org/dc/dcmitype/StillImage" />
        <dc:title></dc:title>
      </cc:Work>
    </rdf:RDF>
  </metadata>
  <g
     transform="translate(0.77882178,-951.58797)"
     id="layer1">
    <path
       d="M 164.65487,226.05741 100.26252,290.60054 9.0913701,290.70717 -55.451767,226.31483 -55.558394,135.14367 8.8339505,70.600536 100.0051,70.49391 l 64.54314,64.39234 z"
       transform="matrix(0.45205247,0,0,0.45205247,25.341334,920.72124)"
       id="path2991"
       style="fill:#ffffff;fill-opacity:1;fill-rule:evenodd;stroke:#000000;stroke-width:4.42426538;stroke-linecap:butt;stroke-linejoin:miter;stroke-miterlimit:4;stroke-opacity:1;stroke-dasharray:none" />
    <g
       id="text2985-2"
       style="font-size:40px;font-style:normal;font-weight:normal;line-height:125%;letter-spacing:0px;word-spacing:0px;fill:#b40000;fill-opacity:1;stroke:none;font-family:Sans" />
    <path
       d="m 41.85207,981.49545 c -20.00553,4.54509 -24.89027,27.79565 -22.61895,52.26525 l 46.36488,0.1608 c -2.07992,-7.6507 -3.01318,-12.1013 -8.13442,-20.9265 l 15.55543,3.6075 c 3.44923,1.6195 10.63659,-1.1899 7.47626,-8.858 l -17.03259,-16.81152 2.73326,-7.43605 c -5.33527,-1.66539 -10.12397,-2.61137 -14.41221,-2.9266"
       id="path3646-2"
       style="fill:none;stroke:#0d00b4;stroke-width:3;stroke-linecap:butt;stroke-linejoin:miter;stroke-miterlimit:4;stroke-opacity:1;stroke-dasharray:none" />
    <path
       d="m 515.08926,602.80859 a 0.98214281,0.98214281 0 1 1 -1.96429,0 0.98214281,0.98214281 0 1 1 1.96429,0 z"
       transform="matrix(-0.63968233,1.7403079,-1.7403079,-0.63968233,1440.6186,490.77891)"
       id="path3648-4"
       style="color:#000000;fill:#aa0000;fill-opacity:1;fill-rule:nonzero;stroke:#0d00b4;stroke-width:1.61799371;stroke-miterlimit:4;stroke-opacity:1;stroke-dasharray:none;marker:none;visibility:visible;display:inline;overflow:visible;enable-background:accumulate" />
    <path
       d="m 51.6152,991.5899 1.5739,-20.78707 c -7.18379,2.83914 -13.13018,11.42476 -14.15615,19.85505"
       id="path3652-9"
       style="fill:none;stroke:#0d00b4;stroke-width:3;stroke-linecap:round;stroke-linejoin:round;stroke-miterlimit:4;stroke-opacity:1;stroke-dasharray:none" />
  </g>
</svg>
