<?xml version="1.0" encoding="UTF-8" standalone="no"?>
<!-- Created with Inkscape (http://www.inkscape.org/) -->

<svg
   xmlns:dc="http://purl.org/dc/elements/1.1/"
   xmlns:cc="http://creativecommons.org/ns#"
   xmlns:rdf="http://www.w3.org/1999/02/22-rdf-syntax-ns#"
   xmlns:svg="http://www.w3.org/2000/svg"
   xmlns="http://www.w3.org/2000/svg"
   version="1.1"
   width="101.55641"
   height="101.54229"
   id="svg2">
  <defs
     id="defs4" />
  <metadata
     id="metadata7">
    <rdf:RDF>
      <cc:Work
         rdf:about="">
        <dc:format>image/svg+xml</dc:format>
        <dc:type
           rdf:resource="http://purl.org/dc/dcmitype/StillImage" />
        <dc:title></dc:title>
      </cc:Work>
    </rdf:RDF>
  </metadata>
  <g
     transform="translate(0.77882178,-951.58797)"
     id="layer1">
    <path
       d="M 164.65487,226.05741 100.26252,290.60054 9.0913701,290.70717 -55.451767,226.31483 -55.558394,135.14367 8.8339505,70.600536 100.0051,70.49391 l 64.54314,64.39234 z"
       transform="matrix(0.45205247,0,0,0.45205247,25.341335,920.72126)"
       id="path2991"
       style="fill:#ffffff;fill-opacity:1;fill-rule:evenodd;stroke:#000000;stroke-width:4.42426538;stroke-linecap:butt;stroke-linejoin:miter;stroke-miterlimit:4;stroke-opacity:1;stroke-dasharray:none" />
    <g
       id="text2985-2"
       style="font-size:40px;font-style:normal;font-weight:normal;line-height:125%;letter-spacing:0px;word-spacing:0px;fill:#b40000;fill-opacity:1;stroke:none;font-family:Sans" />
    <g
       id="g4375">
      <path
         d="m 20.018856,988.10736 c -12.7183451,10.10322 8.566041,47.96994 8.566041,47.96994 l 42.830206,0 c 0,0 21.284387,-37.86672 8.566041,-47.96994 C 71.467608,981.34436 50,1000.9564 50,1000.9564 c 0,0 -21.467607,-19.61204 -29.981144,-12.84904 z"
         id="path2995"
         style="fill:none;stroke:#0d00b4;stroke-width:3;stroke-linecap:butt;stroke-linejoin:miter;stroke-miterlimit:4;stroke-opacity:1;stroke-dasharray:none" />
      <path
         d="m 24.318843,1027.4347 51.257994,0"
         id="path3769"
         style="fill:none;stroke:#0d00b4;stroke-width:3;stroke-linecap:butt;stroke-linejoin:miter;stroke-miterlimit:4;stroke-opacity:1;stroke-dasharray:none" />
      <path
         d="m 48.046408,990.16128 3.907182,0 0,37.24572 -3.907182,0 z"
         id="rect3765"
         style="fill:#ffffff;fill-opacity:1;stroke:#0d00b4;stroke-width:3;stroke-linecap:butt;stroke-miterlimit:4;stroke-opacity:1;stroke-dasharray:none" />
      <path
         d="m 43.57547,968.64708 4.283021,8.56604 -8.566042,-4.28302 0,12.84907 8.566042,-4.28302 -4.283021,8.56604 12.849062,0 -4.283021,-8.56604 8.566041,4.28302 0,-12.84907 -8.566041,4.28302 4.283109,-8.56604 z"
         id="path3041"
         style="fill:#ffffff;fill-opacity:1;stroke:#0d00b4;stroke-width:3;stroke-linecap:butt;stroke-linejoin:miter;stroke-miterlimit:4;stroke-opacity:1;stroke-dasharray:none" />
    </g>
  </g>
</svg>
