<?xml version="1.0" encoding="UTF-8" standalone="no"?>
<!-- Created with Inkscape (http://www.inkscape.org/) -->

<svg
   xmlns:dc="http://purl.org/dc/elements/1.1/"
   xmlns:cc="http://creativecommons.org/ns#"
   xmlns:rdf="http://www.w3.org/1999/02/22-rdf-syntax-ns#"
   xmlns:svg="http://www.w3.org/2000/svg"
   xmlns="http://www.w3.org/2000/svg"
   version="1.1"
   width="101.55641"
   height="101.54229"
   id="svg2">
  <defs
     id="defs4" />
  <metadata
     id="metadata7">
    <rdf:RDF>
      <cc:Work
         rdf:about="">
        <dc:format>image/svg+xml</dc:format>
        <dc:type
           rdf:resource="http://purl.org/dc/dcmitype/StillImage" />
        <dc:title></dc:title>
      </cc:Work>
    </rdf:RDF>
  </metadata>
  <path
     d="M 100.5528,71.323081 71.444076,100.49996 30.229932,100.54816 1.0530478,71.439448 1.0048468,30.2253 30.113565,1.0484167 71.327708,1.0002161 100.50459,30.108932 z"
     id="path2991"
     style="fill:#ffffff;fill-opacity:1;fill-rule:evenodd;stroke:#000000;stroke-width:2;stroke-linecap:butt;stroke-linejoin:miter;stroke-miterlimit:4;stroke-opacity:1;stroke-dasharray:none" />
  <g
     transform="translate(-3.3766386,0.34464205)"
     id="g9252">
    <path
       d="M 38.983484,41.526331 C 36.760521,44.450456 35.5133,48.06867 35.5133,51.936892 c 0,4.805243 2.054041,9.159873 5.326327,12.34741 -6.480035,3.822951 -11.133702,10.396099 -12.508815,18.077252 l 51.6493,0 C 78.604999,74.680401 73.951349,68.107253 67.471297,64.284302 c 3.272303,-3.187537 5.245632,-7.542167 5.245632,-12.34741 0,-3.702944 -1.270445,-7.154176 -3.308776,-10.007051 l -30.424669,-0.40351 z"
       id="path4008"
       style="color:#000000;fill:none;stroke:#b40000;stroke-width:3;stroke-linecap:round;stroke-linejoin:round;stroke-miterlimit:4;stroke-opacity:1;stroke-dasharray:none;stroke-dashoffset:0;marker:none;visibility:visible;display:inline;overflow:visible;enable-background:accumulate" />
    <path
       d="M 69.775272,41.755887 37.94121,41.504096 30.735382,24.077729 l 16.741415,3.805906 7.103538,-9.386097 6.3163,10.257266 18.255161,-3.367946 -9.376524,16.369003 z"
       id="path4016"
       style="fill:none;stroke:#b40000;stroke-width:3;stroke-linecap:butt;stroke-linejoin:round;stroke-miterlimit:4;stroke-opacity:1;stroke-dasharray:none" />
    <path
       d="m 63.261622,49.126293 -5.084075,5.112039 0,0"
       id="path4018"
       style="fill:#fedaa4;fill-opacity:1;stroke:#b40000;stroke-width:3;stroke-linecap:round;stroke-linejoin:miter;stroke-miterlimit:4;stroke-opacity:1;stroke-dasharray:none" />
    <path
       d="m 44.994508,48.910632 5.084075,5.112039 0,0"
       id="path4018-5"
       style="fill:#fedaa4;fill-opacity:1;stroke:#b40000;stroke-width:3;stroke-linecap:round;stroke-linejoin:miter;stroke-miterlimit:4;stroke-opacity:1;stroke-dasharray:none" />
  </g>
</svg>
